<svg width="344" height="70" viewBox="0 0 344 70" fill="none" xmlns="http://www.w3.org/2000/svg">
<path d="M26.1836 32.9375C26.1836 33.9766 26.3659 34.6875 26.7305 35.0703C27.1133 35.4349 27.9518 35.6172 29.2461 35.6172H30.5586C32.4362 35.6172 33.9674 34.9154 35.1523 33.5117C36.3372 32.1081 36.9297 30.1211 36.9297 27.5508L36.9023 27.2773C36.9023 24.6888 36.2279 22.6562 34.8789 21.1797C33.5299 19.7031 31.8164 18.9648 29.7383 18.9648H29.0547C27.5234 18.9648 26.6211 19.3385 26.3477 20.0859C26.2565 20.3229 26.2109 21.6992 26.2109 24.2148V28.3711L26.1836 29.4102V32.9375ZM15 52.1055C15 50.8477 15.5378 49.8542 16.6133 49.125C17.6888 48.3776 18.3086 47.5482 18.4727 46.6367C18.7279 45.1966 18.8555 41.0859 18.8555 34.3047C18.8555 27.5234 18.6914 23.4583 18.3633 22.1094C18.0352 20.7422 17.5703 19.8034 16.9688 19.293C15.6562 18.1992 15 17.4883 15 17.1602V16.7227C15 15.9753 15.6836 15.5013 17.0508 15.3008C17.4336 15.2461 19.375 15.2188 22.875 15.2188L26.4844 15.1641H27.1953L29.3555 15.2461H31.543C37.9961 15.2461 42.2982 17.2422 44.4492 21.2344C45.2695 22.7656 45.6797 24.388 45.6797 26.1016V26.8672C45.6797 29.9297 44.5586 32.5182 42.3164 34.6328C40.0742 36.7292 36.9115 37.9596 32.8281 38.3242C30.4219 38.543 29.0638 38.7253 28.7539 38.8711C27.5326 39.418 26.9219 41.4505 26.9219 44.9688C26.9219 46.5911 27.487 47.8581 28.6172 48.7695C30.1302 49.9909 30.8867 51.0208 30.8867 51.8594C30.8867 52.5156 30.1849 52.9714 28.7812 53.2266C27.3958 53.4818 25.3815 53.6094 22.7383 53.6094C17.5794 53.6094 15 53.1081 15 52.1055ZM52.9859 36.957V37.2305C52.9859 37.4492 53.8336 37.5586 55.5289 37.5586H58.6734C61.1708 37.5586 62.4195 37.4128 62.4195 37.1211C62.4195 36.3372 61.6448 33.931 60.0953 29.9023C58.5458 25.8737 57.7437 23.8594 57.6891 23.8594C57.6526 23.8594 56.8596 25.8828 55.3102 29.9297C53.7607 33.9583 52.9859 36.3008 52.9859 36.957ZM58.3727 15.4648H59.1656C60.5146 15.4648 62.0276 16.9049 63.7047 19.7852C64.288 20.7878 65.163 22.8659 66.3297 26.0195C67.4964 29.1732 68.499 31.7891 69.3375 33.8672C70.176 35.9453 71.0875 38.4245 72.0719 41.3047C73.0745 44.1667 73.7945 46.0716 74.232 47.0195C74.6878 47.9492 75.4898 48.8424 76.6383 49.6992C77.7867 50.556 78.3609 51.3034 78.3609 51.9414C78.3609 52.5612 77.969 52.9714 77.1852 53.1719C75.9091 53.4818 72.7464 53.6367 67.6969 53.6367C65.4 53.6367 64.2516 53.1445 64.2516 52.1602C64.2516 51.9049 64.4339 51.2852 64.7984 50.3008C65.163 49.2982 65.3453 48.5599 65.3453 48.0859C65.3453 45.8438 64.8076 43.957 63.732 42.4258C63.2945 41.806 61.9182 41.4961 59.6031 41.4961C55.3557 41.4961 52.9495 41.6328 52.3844 41.9062C51.8375 42.1797 51.2724 42.8724 50.6891 43.9844C50.124 45.0964 49.8414 46.1263 49.8414 47.0742C49.8414 48.0221 50.0966 49.043 50.607 50.1367C51.1357 51.2305 51.4 52.0872 51.4 52.707C51.4 53.4727 50.5797 53.8555 48.9391 53.8555C45.038 53.8555 42.4312 53.6732 41.1187 53.3086C40.2802 53.0716 39.8609 52.4792 39.8609 51.5312C39.8609 51.4036 40.6904 50.6107 42.3492 49.1523C43.2607 48.3503 43.9898 47.3021 44.5367 46.0078C48.4742 36.6198 50.9716 29.8203 52.0289 25.6094C53.1044 21.3802 54.0159 18.6367 54.7633 17.3789C55.5107 16.1029 56.7138 15.4648 58.3727 15.4648ZM91.4094 19.2109H90.5617C89.3221 19.2109 88.5656 19.3841 88.2922 19.7305C88.037 20.0586 87.9094 20.9336 87.9094 22.3555V32.2812C87.9094 33.0104 88.0643 33.5299 88.3742 33.8398C88.6841 34.1497 89.3677 34.3047 90.425 34.3047H91.4914L91.7102 34.2773L92.3391 34.25C92.4849 34.2318 92.6216 34.2227 92.7492 34.2227C94.0435 34.2227 95.3013 33.612 96.5227 32.3906C97.7622 31.151 98.382 29.5378 98.382 27.5508V26.2383C98.382 24.2695 97.7622 22.6107 96.5227 21.2617C95.2831 19.8945 93.5786 19.2109 91.4094 19.2109ZM90.1242 15.5742H91.9836C96.6503 15.5742 100.296 16.4674 102.921 18.2539C105.546 20.0404 106.859 22.556 106.859 25.8008C106.859 27.6419 106.476 29.2552 105.71 30.6406C104.945 32.026 104.17 33.0742 103.386 33.7852C101.599 35.4076 100.706 36.2917 100.706 36.4375C100.706 37.112 101.034 38.0052 101.691 39.1172C102.365 40.2292 103.131 41.5599 103.987 43.1094C104.844 44.6589 105.455 45.6797 105.82 46.1719C106.767 47.4479 107.797 48.332 108.909 48.8242C110.896 49.681 111.89 50.319 111.89 50.7383C111.89 51.9049 111.398 52.6341 110.413 52.9258C109.01 53.3451 107.369 53.5547 105.491 53.5547C103.614 53.5547 102.101 52.9714 100.952 51.8047C99.8039 50.6198 98.4732 48.4596 96.9602 45.3242C95.4471 42.1706 94.4719 40.3203 94.0344 39.7734C93.1229 38.5885 91.9289 37.9961 90.4523 37.9961C89.6503 37.9961 89.1034 38.3971 88.8117 39.1992C88.5383 39.9831 88.4016 41.9518 88.4016 45.1055C88.4016 45.8711 88.7935 47.0742 89.5773 48.7148L90.5891 50.5469C91.0812 51.4583 91.3273 51.9688 91.3273 52.0781C91.3273 53.026 89.8417 53.5 86.8703 53.5C81.6932 53.5 78.6581 53.3724 77.7648 53.1172C76.8898 52.862 76.4523 52.3516 76.4523 51.5859C76.4523 50.8203 77.0083 50.1003 78.1203 49.4258C79.2323 48.7513 79.9068 47.9583 80.1437 47.0469C80.3807 46.1172 80.4992 42.1159 80.4992 35.043C80.4992 27.9518 80.3625 23.7956 80.0891 22.5742C79.8156 21.3529 79.3234 20.3958 78.6125 19.7031C77.3365 18.4635 76.6984 17.6706 76.6984 17.3242C76.6984 16.5951 77.4549 16.1211 78.968 15.9023C80.4992 15.6836 84.218 15.5742 90.1242 15.5742ZM137.161 36V34.168C137.161 32.3086 136.915 30.3581 136.423 28.3164C135.438 24.2513 133.707 21.4349 131.227 19.8672C130.115 19.1745 128.839 18.8281 127.399 18.8281H126.989C125.804 18.8281 124.592 19.1836 123.352 19.8945C120.946 21.2799 119.296 23.7227 118.403 27.2227C117.838 29.4102 117.555 31.5885 117.555 33.7578V34.6875C117.555 36.8203 117.829 38.9258 118.376 41.0039C119.47 45.1055 121.347 47.9492 124.009 49.5352C125.102 50.1914 126.233 50.5195 127.399 50.5195H128.22C129.459 50.5195 130.653 50.1641 131.802 49.4531C132.95 48.724 133.889 47.7487 134.618 46.5273C136.313 43.7018 137.161 40.1927 137.161 36ZM109.68 34.8242C109.68 31.9076 110.127 29.2096 111.02 26.7305C112.752 21.8815 115.787 18.5182 120.126 16.6406C122.641 15.5469 125.212 15 127.837 15L128.493 15.0273H129.122C131.236 15.0273 133.433 15.5104 135.712 16.4766C137.99 17.4427 139.932 18.819 141.536 20.6055C143.158 22.3737 144.389 24.4427 145.227 26.8125C146.066 29.1641 146.485 31.5521 146.485 33.9766V34.6055C146.485 37.3581 146.02 39.9922 145.091 42.5078C144.179 45.0052 142.858 47.1471 141.126 48.9336C137.626 52.5612 132.986 54.3841 127.208 54.4023C124.838 54.4023 122.55 53.9557 120.345 53.0625C118.157 52.151 116.325 50.8841 114.848 49.2617C111.403 45.4336 109.68 40.6211 109.68 34.8242ZM164.505 15C169.372 15 172.644 15.4284 174.321 16.2852C175.579 16.9232 176.208 18.5638 176.208 21.207C176.208 23.8503 175.761 25.1719 174.868 25.1719C174.139 25.1719 172.945 24.4062 171.286 22.875C169.627 21.3255 168.369 20.3138 167.512 19.8398C166.656 19.3659 165.535 19.1289 164.149 19.1289C162.782 19.1289 161.606 19.5755 160.622 20.4688C159.656 21.362 159.173 22.4284 159.173 23.668C159.173 25.3268 160.084 26.8125 161.907 28.125C162.818 28.7812 164.924 29.8477 168.223 31.3242C171.523 32.8008 173.874 34.25 175.278 35.6719C177.265 37.6953 178.259 39.974 178.259 42.5078C178.259 47.7943 175.643 51.3581 170.411 53.1992C168.861 53.7461 167.276 54.0195 165.653 54.0195H164.669C162.664 54.0195 160.44 53.7917 157.997 53.3359C155.554 52.8802 154.014 52.4336 153.376 51.9961C152.191 51.1758 151.598 49.2708 151.598 46.2812V45.3516C151.598 43.4193 152.118 42.4531 153.157 42.4531C153.886 42.4531 155.044 43.3828 156.63 45.2422C158.216 47.1016 159.546 48.3411 160.622 48.9609C161.716 49.5807 163.101 49.8906 164.778 49.8906C166.473 49.8906 167.895 49.4076 169.044 48.4414C170.192 47.4753 170.766 46.4271 170.766 45.2969C170.766 43.6016 170.256 42.207 169.235 41.1133C168.214 40.0195 166.182 38.7708 163.137 37.3672C160.093 35.9635 157.988 34.8333 156.821 33.9766C153.613 31.6068 152.009 28.763 152.009 25.4453C152.009 24.7526 152.082 24.0326 152.227 23.2852C152.829 20.1497 154.843 17.7799 158.27 16.1758C159.947 15.3919 161.697 15 163.52 15H164.505ZM188.436 36.957V37.2305C188.436 37.4492 189.284 37.5586 190.979 37.5586H194.123C196.621 37.5586 197.87 37.4128 197.87 37.1211C197.87 36.3372 197.095 33.931 195.545 29.9023C193.996 25.8737 193.194 23.8594 193.139 23.8594C193.103 23.8594 192.31 25.8828 190.76 29.9297C189.211 33.9583 188.436 36.3008 188.436 36.957ZM193.823 15.4648H194.616C195.965 15.4648 197.478 16.9049 199.155 19.7852C199.738 20.7878 200.613 22.8659 201.78 26.0195C202.946 29.1732 203.949 31.7891 204.788 33.8672C205.626 35.9453 206.538 38.4245 207.522 41.3047C208.524 44.1667 209.245 46.0716 209.682 47.0195C210.138 47.9492 210.94 48.8424 212.088 49.6992C213.237 50.556 213.811 51.3034 213.811 51.9414C213.811 52.5612 213.419 52.9714 212.635 53.1719C211.359 53.4818 208.196 53.6367 203.147 53.6367C200.85 53.6367 199.702 53.1445 199.702 52.1602C199.702 51.9049 199.884 51.2852 200.248 50.3008C200.613 49.2982 200.795 48.5599 200.795 48.0859C200.795 45.8438 200.258 43.957 199.182 42.4258C198.745 41.806 197.368 41.4961 195.053 41.4961C190.806 41.4961 188.399 41.6328 187.834 41.9062C187.288 42.1797 186.722 42.8724 186.139 43.9844C185.574 45.0964 185.291 46.1263 185.291 47.0742C185.291 48.0221 185.547 49.043 186.057 50.1367C186.586 51.2305 186.85 52.0872 186.85 52.707C186.85 53.4727 186.03 53.8555 184.389 53.8555C180.488 53.8555 177.881 53.6732 176.569 53.3086C175.73 53.0716 175.311 52.4792 175.311 51.5312C175.311 51.4036 176.14 50.6107 177.799 49.1523C178.711 48.3503 179.44 47.3021 179.987 46.0078C183.924 36.6198 186.422 29.8203 187.479 25.6094C188.554 21.3802 189.466 18.6367 190.213 17.3789C190.961 16.1029 192.164 15.4648 193.823 15.4648ZM231.098 46.418C231.098 47.8216 231.408 48.9518 232.027 49.8086C232.283 50.1549 232.693 50.6198 233.258 51.2031C233.823 51.7865 234.105 52.2604 234.105 52.625C234.105 53.6823 233.24 54.2109 231.508 54.2109C230.979 54.2109 230.368 54.1836 229.676 54.1289L227.953 53.9648C226.841 53.8919 225.41 53.8555 223.66 53.8555C221.91 53.8555 220.734 53.8008 220.133 53.6914C219.549 53.582 219.258 53.2721 219.258 52.7617C219.258 52.2331 219.741 51.4857 220.707 50.5195C221.691 49.5352 222.357 48.6875 222.703 47.9766C223.049 47.2474 223.223 45.707 223.223 43.3555C223.223 40.9857 222.621 38.7344 221.418 36.6016C217.28 29.2552 214.409 24.5065 212.805 22.3555C212.367 21.7539 211.547 21.0339 210.344 20.1953C209.141 19.3568 208.539 18.5456 208.539 17.7617C208.539 16.9779 208.967 16.431 209.824 16.1211C211.1 15.6471 213.716 15.4102 217.672 15.4102H218.602C221.208 15.4102 222.512 16.0664 222.512 17.3789L222.402 17.9805L222.266 18.5547C222.102 19.4297 222.02 20.0039 222.02 20.2773C222.02 21.5352 223.46 24.9987 226.34 30.668C227.124 32.2174 227.698 32.9922 228.062 32.9922C228.773 32.9922 230.259 30.9688 232.52 26.9219C233.686 24.8438 234.27 23.3581 234.27 22.4648C234.27 21.5716 234.051 20.6784 233.613 19.7852C233.194 18.8737 232.984 18.1901 232.984 17.7344C232.984 16.9323 233.449 16.3945 234.379 16.1211C235.783 15.7018 238.052 15.4922 241.188 15.4922C243.466 15.4922 244.605 15.957 244.605 16.8867C244.605 17.9987 244.168 18.8646 243.293 19.4844C241.689 20.6146 240.659 21.526 240.203 22.2188C238.161 25.2812 235.746 29.7474 232.957 35.6172C231.717 38.224 231.098 41.8242 231.098 46.418ZM255.33 15C260.197 15 263.469 15.4284 265.146 16.2852C266.404 16.9232 267.033 18.5638 267.033 21.207C267.033 23.8503 266.586 25.1719 265.693 25.1719C264.964 25.1719 263.77 24.4062 262.111 22.875C260.452 21.3255 259.194 20.3138 258.337 19.8398C257.481 19.3659 256.36 19.1289 254.974 19.1289C253.607 19.1289 252.431 19.5755 251.447 20.4688C250.481 21.362 249.998 22.4284 249.998 23.668C249.998 25.3268 250.909 26.8125 252.732 28.125C253.643 28.7812 255.749 29.8477 259.048 31.3242C262.348 32.8008 264.699 34.25 266.103 35.6719C268.09 37.6953 269.084 39.974 269.084 42.5078C269.084 47.7943 266.468 51.3581 261.236 53.1992C259.686 53.7461 258.101 54.0195 256.478 54.0195H255.494C253.489 54.0195 251.265 53.7917 248.822 53.3359C246.379 52.8802 244.839 52.4336 244.201 51.9961C243.016 51.1758 242.423 49.2708 242.423 46.2812V45.3516C242.423 43.4193 242.943 42.4531 243.982 42.4531C244.711 42.4531 245.869 43.3828 247.455 45.2422C249.041 47.1016 250.371 48.3411 251.447 48.9609C252.541 49.5807 253.926 49.8906 255.603 49.8906C257.298 49.8906 258.72 49.4076 259.869 48.4414C261.017 47.4753 261.591 46.4271 261.591 45.2969C261.591 43.6016 261.081 42.207 260.06 41.1133C259.039 40.0195 257.007 38.7708 253.962 37.3672C250.918 35.9635 248.813 34.8333 247.646 33.9766C244.438 31.6068 242.834 28.763 242.834 25.4453C242.834 24.7526 242.907 24.0326 243.052 23.2852C243.654 20.1497 245.668 17.7799 249.095 16.1758C250.772 15.3919 252.522 15 254.345 15H255.33ZM289.837 35.918C287.522 35.918 286.137 36.2826 285.681 37.0117C285.371 37.5221 285.216 38.9987 285.216 41.4414C285.216 43.8841 285.362 45.6159 285.654 46.6367C285.964 47.6393 286.502 48.6237 287.267 49.5898C288.051 50.556 288.443 51.3216 288.443 51.8867C288.443 52.4336 287.732 52.8346 286.31 53.0898C284.907 53.3268 281.643 53.4453 276.521 53.4453C275.464 53.4453 274.762 53.3086 274.416 53.0352C274.087 52.7435 273.923 52.151 273.923 51.2578C273.923 50.9297 274.379 50.3919 275.291 49.6445C276.22 48.8789 276.795 48.1042 277.013 47.3203C277.232 46.5365 277.341 42.2253 277.341 34.3867C277.341 26.5299 277.214 22.2096 276.959 21.4258C276.722 20.6237 275.974 19.8307 274.716 19.0469C273.86 18.5 273.431 17.6888 273.431 16.6133L274.06 16.0391C274.808 15.638 278.162 15.4375 284.123 15.4375C286.893 15.4375 288.279 15.9023 288.279 16.832C288.279 17.2695 287.951 18.1719 287.295 19.5391C286.638 20.888 286.201 21.9818 285.982 22.8203C285.782 23.6406 285.681 25.4635 285.681 28.2891C285.681 29.7109 286.018 30.6862 286.693 31.2148C287.094 31.5247 289.218 31.6797 293.064 31.6797C296.929 31.6797 299.153 31.4883 299.736 31.1055C300.319 30.7227 300.611 29.4466 300.611 27.2773C300.611 25.0898 300.474 23.513 300.201 22.5469C299.946 21.5625 299.453 20.5326 298.724 19.457C297.995 18.3815 297.63 17.7253 297.63 17.4883C297.63 16.7956 298.268 16.2943 299.545 15.9844C300.237 15.8203 302.106 15.7383 305.15 15.7383C308.194 15.7383 310.108 15.8294 310.892 16.0117C311.913 16.2487 312.423 16.9323 312.423 18.0625C312.423 18.4453 311.94 19.0833 310.974 19.9766C310.026 20.8516 309.479 21.4714 309.334 21.8359C309.005 22.6927 308.841 26.1654 308.841 32.2539L308.759 38.8984L308.732 40.2109V42.8633C308.732 46.1992 308.942 48.25 309.361 49.0156C309.525 49.3255 310.081 49.7539 311.029 50.3008C311.995 50.8294 312.478 51.5677 312.478 52.5156C312.478 53.3177 311.175 53.7188 308.568 53.7188L307.31 53.6914L304.712 53.6641C301.085 53.6641 298.961 53.3633 298.341 52.7617L298.013 52.1602C298.013 51.5039 298.396 50.5286 299.162 49.2344C299.927 47.9401 300.429 46.7826 300.666 45.7617C300.921 44.7227 301.048 43.0911 301.048 40.8672C301.048 38.6432 300.711 37.2669 300.037 36.7383C299.38 36.1914 295.981 35.918 289.837 35.918ZM315.546 53.1172C313.213 53.1172 312.046 52.7435 312.046 51.9961C312.046 51.2487 312.648 50.4557 313.851 49.6172C315.072 48.7604 315.82 47.8034 316.093 46.7461C316.366 45.6888 316.503 41.5143 316.503 34.2227C316.503 26.9128 316.43 22.9753 316.284 22.4102C315.956 21.1159 315.336 20.1497 314.425 19.5117C312.766 18.3451 311.937 17.4336 311.937 16.7773V16.3945C311.937 15.7383 314.234 15.4102 318.827 15.4102L320.687 15.3281H322.546L323.175 15.3555H323.804C325.882 15.3555 327.14 15.4375 327.577 15.6016C328.033 15.7474 328.261 16.2122 328.261 16.9961C328.261 17.4701 327.586 18.2539 326.237 19.3477C325.508 19.9492 325.016 20.806 324.761 21.918C324.506 23.0299 324.378 27.3229 324.378 34.7969C324.378 42.2708 324.478 46.418 324.679 47.2383C324.879 48.0586 325.536 48.9427 326.648 49.8906C327.76 50.8385 328.316 51.6224 328.316 52.2422C328.316 52.9714 327.586 53.3359 326.128 53.3359H324.214L323.585 53.3086H322.3L320.441 53.2539L317.98 53.1992L316.777 53.1445C316.376 53.1263 315.965 53.1172 315.546 53.1172Z" fill="#000"/>
</svg>
