<svg preserveAspectRatio="none" xmlns="http://www.w3.org/2000/svg" width="62" height="62" viewBox="0 0 62 62"><defs><linearGradient id="p" x1="0" y1="0" x2="1" y2=".7"><stop stop-color="#999"/><stop offset=".35" stop-color="white"/><stop offset=".7" stop-color="#ccc"/><stop offset="1" stop-color="white"/></linearGradient></defs><rect width="62" height="62" fill="url(#p)"/><ellipse cx="57.34" cy="58.81" rx="0.67" ry="0.24" fill="black" opacity="0.84"/><ellipse cx="26.27" cy="32.87" rx="0.29" ry="0.31" fill="black" opacity="0.78"/><ellipse cx="13.70" cy="28.21" rx="0.23" ry="0.24" fill="black" opacity="0.88"/><ellipse cx="26.12" cy="31.78" rx="0.59" ry="0.42" fill="black" opacity="0.62"/><ellipse cx="48.55" cy="36.53" rx="0.55" ry="0.60" fill="black" opacity="0.99"/><ellipse cx="22.49" cy="47.11" rx="0.40" ry="0.56" fill="black" opacity="0.86"/><ellipse cx="19.49" cy="5.32" rx="0.46" ry="0.66" fill="black" opacity="0.84"/><ellipse cx="27.74" cy="39.83" rx="0.31" ry="0.30" fill="black" opacity="0.73"/><ellipse cx="50.58" cy="12.13" rx="0.28" ry="0.25" fill="black" opacity="0.62"/><ellipse cx="17.08" cy="35.51" rx="0.63" ry="0.40" fill="black" opacity="0.75"/><ellipse cx="17.89" cy="18.90" rx="0.61" ry="0.55" fill="black" opacity="0.70"/><ellipse cx="6.64" cy="48.60" rx="0.57" ry="0.74" fill="black" opacity="0.70"/><ellipse cx="33.82" cy="56.96" rx="0.52" ry="0.81" fill="black" opacity="0.67"/><ellipse cx="60.45" cy="3.47" rx="0.43" ry="0.20" fill="black" opacity="0.92"/><ellipse cx="42.61" cy="60.37" rx="0.62" ry="0.82" fill="black" opacity="0.82"/><ellipse cx="61.27" cy="46.44" rx="0.39" ry="0.83" fill="black" opacity="0.75"/><ellipse cx="11.99" cy="4.70" rx="0.45" ry="0.31" fill="black" opacity="0.97"/><ellipse cx="58.93" cy="13.39" rx="0.27" ry="0.53" fill="black" opacity="0.67"/><ellipse cx="33.71" cy="50.40" rx="0.35" ry="0.46" fill="black" opacity="0.96"/><ellipse cx="27.57" cy="21.25" rx="0.67" ry="0.73" fill="black" opacity="0.96"/><ellipse cx="42.64" cy="25.58" rx="0.57" ry="0.74" fill="black" opacity="0.86"/><ellipse cx="14.78" cy="18.31" rx="0.42" ry="0.70" fill="black" opacity="0.82"/><ellipse cx="34.10" cy="51.25" rx="0.27" ry="0.60" fill="black" opacity="0.73"/><ellipse cx="34.68" cy="51.79" rx="0.34" ry="0.82" fill="black" opacity="0.63"/><ellipse cx="34.85" cy="33.59" rx="0.34" ry="0.56" fill="black" opacity="0.79"/><ellipse cx="27.87" cy="44.54" rx="0.22" ry="0.43" fill="black" opacity="0.91"/><ellipse cx="8.80" cy="53.78" rx="0.32" ry="0.64" fill="black" opacity="0.67"/><ellipse cx="27.86" cy="26.20" rx="0.26" ry="0.65" fill="black" opacity="0.79"/><ellipse cx="42.72" cy="33.43" rx="0.50" ry="0.53" fill="black" opacity="0.72"/><ellipse cx="55.72" cy="5.36" rx="0.66" ry="0.76" fill="black" opacity="0.80"/><ellipse cx="48.17" cy="41.75" rx="0.52" ry="0.38" fill="black" opacity="0.73"/><ellipse cx="21.66" cy="18.73" rx="0.70" ry="0.41" fill="black" opacity="0.76"/><ellipse cx="26.01" cy="50.62" rx="0.46" ry="0.55" fill="black" opacity="0.70"/><ellipse cx="17.24" cy="5.52" rx="0.33" ry="0.36" fill="black" opacity="0.94"/><ellipse cx="31.15" cy="6.84" rx="0.45" ry="0.26" fill="black" opacity="0.83"/><ellipse cx="27.41" cy="53.21" rx="0.35" ry="0.75" fill="black" opacity="0.70"/><ellipse cx="60.92" cy="39.32" rx="0.24" ry="0.72" fill="black" opacity="0.71"/><ellipse cx="22.46" cy="9.09" rx="0.64" ry="0.24" fill="black" opacity="0.90"/><ellipse cx="24.53" cy="42.13" rx="0.37" ry="0.23" fill="black" opacity="0.97"/><ellipse cx="40.59" cy="10.52" rx="0.71" ry="0.79" fill="black" opacity="0.67"/><ellipse cx="1.18" cy="37.88" rx="0.29" ry="0.67" fill="black" opacity="0.79"/><ellipse cx="43.96" cy="35.33" rx="0.61" ry="0.73" fill="black" opacity="0.84"/><ellipse cx="36.67" cy="20.27" rx="0.29" ry="0.24" fill="black" opacity="0.94"/><ellipse cx="12.78" cy="26.45" rx="0.38" ry="0.60" fill="black" opacity="0.81"/><ellipse cx="53.26" cy="27.03" rx="0.40" ry="0.62" fill="black" opacity="0.90"/><ellipse cx="57.38" cy="19.33" rx="0.66" ry="0.84" fill="black" opacity="0.99"/><ellipse cx="8.01" cy="23.57" rx="0.61" ry="0.74" fill="black" opacity="0.62"/><ellipse cx="24.49" cy="44.90" rx="0.60" ry="0.54" fill="black" opacity="0.68"/><ellipse cx="25.22" cy="3.63" rx="0.38" ry="0.47" fill="black" opacity="0.93"/><ellipse cx="36.54" cy="25.69" rx="0.34" ry="0.39" fill="black" opacity="0.87"/><ellipse cx="27.62" cy="10.73" rx="0.63" ry="0.57" fill="black" opacity="0.99"/><ellipse cx="33.26" cy="38.63" rx="0.43" ry="0.59" fill="black" opacity="0.97"/><ellipse cx="60.84" cy="40.98" rx="0.44" ry="0.22" fill="black" opacity="0.94"/><ellipse cx="24.27" cy="23.71" rx="0.25" ry="0.20" fill="black" opacity="0.76"/><ellipse cx="60.43" cy="45.92" rx="0.57" ry="0.63" fill="black" opacity="0.71"/><ellipse cx="10.46" cy="37.35" rx="0.25" ry="0.57" fill="black" opacity="0.81"/><ellipse cx="33.63" cy="7.52" rx="0.25" ry="0.50" fill="black" opacity="0.66"/><ellipse cx="39.77" cy="19.19" rx="0.53" ry="0.68" fill="black" opacity="0.84"/><ellipse cx="32.96" cy="12.23" rx="0.39" ry="0.84" fill="black" opacity="0.71"/><ellipse cx="17.63" cy="30.58" rx="0.49" ry="0.71" fill="black" opacity="0.72"/><ellipse cx="59.70" cy="1.38" rx="0.62" ry="0.56" fill="black" opacity="0.96"/><ellipse cx="9.49" cy="42.73" rx="0.69" ry="0.63" fill="black" opacity="0.64"/><ellipse cx="57.10" cy="60.12" rx="0.28" ry="0.73" fill="black" opacity="0.63"/><ellipse cx="5.04" cy="49.31" rx="0.58" ry="0.82" fill="black" opacity="0.85"/><ellipse cx="31.73" cy="16.87" rx="0.51" ry="0.84" fill="black" opacity="0.86"/><ellipse cx="54.28" cy="12.24" rx="0.59" ry="0.67" fill="black" opacity="0.63"/><ellipse cx="50.85" cy="10.92" rx="0.33" ry="0.22" fill="black" opacity="0.87"/><ellipse cx="8.82" cy="60.49" rx="0.22" ry="0.72" fill="black" opacity="0.90"/><ellipse cx="35.30" cy="35.46" rx="0.62" ry="0.61" fill="black" opacity="0.66"/><ellipse cx="49.40" cy="21.94" rx="0.51" ry="0.52" fill="black" opacity="0.96"/><ellipse cx="25.69" cy="52.91" rx="0.26" ry="0.40" fill="black" opacity="0.87"/><ellipse cx="37.94" cy="51.60" rx="0.32" ry="0.72" fill="black" opacity="0.92"/><ellipse cx="8.86" cy="8.67" rx="0.51" ry="0.83" fill="black" opacity="0.85"/><ellipse cx="26.53" cy="31.43" rx="0.62" ry="0.53" fill="black" opacity="0.81"/><ellipse cx="36.78" cy="57.79" rx="0.62" ry="0.74" fill="black" opacity="0.71"/><ellipse cx="37.21" cy="51.03" rx="0.58" ry="0.82" fill="black" opacity="0.97"/><ellipse cx="7.91" cy="31.51" rx="0.40" ry="0.32" fill="black" opacity="0.80"/><ellipse cx="60.98" cy="47.63" rx="0.27" ry="0.35" fill="black" opacity="0.75"/><ellipse cx="54.88" cy="28.49" rx="0.30" ry="0.55" fill="black" opacity="0.70"/><ellipse cx="2.38" cy="36.75" rx="0.72" ry="0.70" fill="black" opacity="0.89"/><ellipse cx="9.46" cy="34.83" rx="0.54" ry="0.69" fill="black" opacity="0.78"/><ellipse cx="3.31" cy="57.52" rx="0.35" ry="0.67" fill="black" opacity="0.79"/><ellipse cx="48.31" cy="20.94" rx="0.27" ry="0.47" fill="black" opacity="0.79"/><ellipse cx="49.14" cy="25.03" rx="0.55" ry="0.43" fill="black" opacity="0.89"/><ellipse cx="10.80" cy="54.56" rx="0.69" ry="0.20" fill="black" opacity="0.94"/><ellipse cx="48.24" cy="42.97" rx="0.27" ry="0.67" fill="black" opacity="0.91"/><ellipse cx="38.83" cy="59.75" rx="0.69" ry="0.60" fill="black" opacity="0.97"/><ellipse cx="8.91" cy="18.49" rx="0.48" ry="0.53" fill="black" opacity="0.98"/><ellipse cx="39.43" cy="38.52" rx="0.53" ry="0.81" fill="black" opacity="0.76"/><ellipse cx="45.84" cy="37.21" rx="0.42" ry="0.41" fill="black" opacity="0.66"/><ellipse cx="0.68" cy="20.83" rx="0.37" ry="0.23" fill="black" opacity="0.79"/><ellipse cx="21.76" cy="57.41" rx="0.61" ry="0.63" fill="black" opacity="0.94"/><ellipse cx="17.03" cy="7.21" rx="0.52" ry="0.33" fill="black" opacity="0.99"/><ellipse cx="26.35" cy="54.94" rx="0.34" ry="0.24" fill="black" opacity="0.85"/><ellipse cx="42.96" cy="15.87" rx="0.68" ry="0.83" fill="black" opacity="0.87"/><ellipse cx="60.84" cy="60.96" rx="0.29" ry="0.67" fill="black" opacity="0.90"/><ellipse cx="45.38" cy="21.05" rx="0.49" ry="0.57" fill="black" opacity="0.94"/><ellipse cx="3.19" cy="23.26" rx="0.38" ry="0.71" fill="black" opacity="0.65"/><ellipse cx="3.82" cy="7.16" rx="0.28" ry="0.47" fill="black" opacity="0.95"/><ellipse cx="22.02" cy="6.27" rx="0.55" ry="0.40" fill="black" opacity="0.83"/><ellipse cx="46.35" cy="28.27" rx="0.59" ry="0.60" fill="black" opacity="0.94"/><ellipse cx="47.27" cy="55.87" rx="0.59" ry="0.37" fill="black" opacity="0.80"/><ellipse cx="47.88" cy="48.65" rx="0.59" ry="0.74" fill="black" opacity="0.93"/><ellipse cx="33.54" cy="39.71" rx="0.24" ry="0.50" fill="black" opacity="0.89"/><ellipse cx="56.64" cy="52.60" rx="0.44" ry="0.33" fill="black" opacity="0.95"/><ellipse cx="40.75" cy="11.88" rx="0.24" ry="0.77" fill="black" opacity="0.83"/><ellipse cx="6.79" cy="61.38" rx="0.51" ry="0.69" fill="black" opacity="0.92"/><ellipse cx="15.87" cy="32.39" rx="0.31" ry="0.59" fill="black" opacity="0.77"/><ellipse cx="48.98" cy="7.18" rx="0.32" ry="0.44" fill="black" opacity="0.60"/><ellipse cx="25.21" cy="59.68" rx="0.65" ry="0.30" fill="black" opacity="0.93"/><ellipse cx="13.96" cy="14.86" rx="0.54" ry="0.38" fill="black" opacity="0.68"/><ellipse cx="5.31" cy="10.96" rx="0.32" ry="0.79" fill="black" opacity="0.62"/><ellipse cx="33.49" cy="13.16" rx="0.58" ry="0.18" fill="black" opacity="0.75"/><ellipse cx="45.74" cy="1.61" rx="0.43" ry="0.40" fill="black" opacity="0.79"/><ellipse cx="38.98" cy="4.96" rx="0.65" ry="0.36" fill="black" opacity="0.91"/><ellipse cx="8.24" cy="5.82" rx="0.32" ry="0.24" fill="black" opacity="0.70"/><ellipse cx="8.65" cy="5.36" rx="0.65" ry="0.53" fill="black" opacity="0.80"/><ellipse cx="31.51" cy="50.25" rx="0.24" ry="0.21" fill="black" opacity="0.87"/><ellipse cx="0.44" cy="31.35" rx="0.53" ry="0.75" fill="black" opacity="0.60"/><ellipse cx="24.92" cy="19.40" rx="0.51" ry="0.20" fill="black" opacity="0.90"/><ellipse cx="59.33" cy="34.02" rx="0.55" ry="0.74" fill="black" opacity="0.94"/><ellipse cx="50.80" cy="30.21" rx="0.26" ry="0.71" fill="black" opacity="0.94"/><ellipse cx="43.46" cy="19.51" rx="0.71" ry="0.60" fill="black" opacity="0.72"/><ellipse cx="48.74" cy="13.90" rx="0.34" ry="0.79" fill="black" opacity="0.62"/><ellipse cx="53.93" cy="24.60" rx="0.51" ry="0.64" fill="black" opacity="0.96"/><ellipse cx="13.63" cy="5.76" rx="0.48" ry="0.33" fill="black" opacity="0.77"/><ellipse cx="6.83" cy="5.58" rx="0.50" ry="0.21" fill="black" opacity="0.71"/><ellipse cx="24.07" cy="5.89" rx="0.62" ry="0.78" fill="black" opacity="0.61"/><ellipse cx="50.02" cy="10.90" rx="0.58" ry="0.22" fill="black" opacity="0.90"/><ellipse cx="57.81" cy="16.06" rx="0.30" ry="0.41" fill="black" opacity="0.94"/><ellipse cx="48.37" cy="9.72" rx="0.67" ry="0.68" fill="black" opacity="0.98"/><ellipse cx="60.31" cy="9.82" rx="0.58" ry="0.20" fill="black" opacity="0.68"/><ellipse cx="33.26" cy="14.46" rx="0.33" ry="0.42" fill="black" opacity="0.78"/><ellipse cx="56.91" cy="36.04" rx="0.50" ry="0.66" fill="black" opacity="0.68"/><ellipse cx="49.80" cy="47.29" rx="0.63" ry="0.48" fill="black" opacity="0.82"/><ellipse cx="4.64" cy="28.43" rx="0.54" ry="0.82" fill="black" opacity="0.96"/><ellipse cx="21.03" cy="46.89" rx="0.65" ry="0.82" fill="black" opacity="0.87"/><ellipse cx="20.43" cy="54.16" rx="0.23" ry="0.56" fill="black" opacity="0.78"/><ellipse cx="54.73" cy="38.51" rx="0.32" ry="0.29" fill="black" opacity="0.61"/><ellipse cx="46.64" cy="48.56" rx="0.41" ry="0.33" fill="black" opacity="0.82"/><ellipse cx="12.12" cy="32.65" rx="0.39" ry="0.39" fill="black" opacity="0.88"/><ellipse cx="15.42" cy="20.55" rx="0.50" ry="0.81" fill="black" opacity="0.66"/><ellipse cx="19.00" cy="16.90" rx="0.38" ry="0.51" fill="black" opacity="0.93"/><ellipse cx="11.24" cy="44.56" rx="0.44" ry="0.56" fill="black" opacity="0.80"/><ellipse cx="37.38" cy="11.13" rx="0.53" ry="0.45" fill="black" opacity="0.91"/><ellipse cx="36.94" cy="25.29" rx="0.71" ry="0.30" fill="black" opacity="0.61"/><ellipse cx="7.64" cy="42.77" rx="0.27" ry="0.67" fill="black" opacity="0.64"/><ellipse cx="18.44" cy="38.58" rx="0.23" ry="0.47" fill="black" opacity="1.00"/><ellipse cx="45.13" cy="24.13" rx="0.67" ry="0.56" fill="black" opacity="0.92"/><ellipse cx="21.32" cy="23.66" rx="0.57" ry="0.69" fill="black" opacity="0.88"/><ellipse cx="9.32" cy="26.13" rx="0.38" ry="0.34" fill="black" opacity="0.65"/><ellipse cx="46.39" cy="8.77" rx="0.40" ry="0.19" fill="black" opacity="0.88"/><ellipse cx="38.77" cy="4.84" rx="0.70" ry="0.85" fill="black" opacity="0.90"/><ellipse cx="49.96" cy="43.62" rx="0.23" ry="0.36" fill="black" opacity="0.69"/><ellipse cx="1.34" cy="39.58" rx="0.52" ry="0.42" fill="black" opacity="0.90"/><ellipse cx="14.53" cy="17.41" rx="0.28" ry="0.34" fill="black" opacity="0.94"/><ellipse cx="30.38" cy="45.68" rx="0.65" ry="0.63" fill="black" opacity="0.74"/><ellipse cx="59.97" cy="4.97" rx="0.43" ry="0.77" fill="black" opacity="0.87"/><ellipse cx="21.93" cy="51.28" rx="0.60" ry="0.66" fill="black" opacity="0.71"/><ellipse cx="42.16" cy="40.66" rx="0.64" ry="0.52" fill="black" opacity="0.97"/><ellipse cx="44.65" cy="12.99" rx="0.51" ry="0.31" fill="black" opacity="0.85"/><ellipse cx="20.19" cy="61.87" rx="0.39" ry="0.71" fill="black" opacity="0.93"/><ellipse cx="23.15" cy="36.52" rx="0.34" ry="0.43" fill="black" opacity="0.78"/><ellipse cx="44.12" cy="31.51" rx="0.30" ry="0.61" fill="black" opacity="0.81"/><ellipse cx="32.56" cy="27.63" rx="0.65" ry="0.62" fill="black" opacity="0.86"/><ellipse cx="31.08" cy="24.91" rx="0.43" ry="0.63" fill="black" opacity="0.78"/><ellipse cx="4.31" cy="13.69" rx="0.25" ry="0.21" fill="black" opacity="0.74"/><ellipse cx="23.42" cy="28.30" rx="0.32" ry="0.34" fill="black" opacity="0.78"/><ellipse cx="18.01" cy="16.18" rx="0.47" ry="0.69" fill="black" opacity="0.62"/><ellipse cx="0.84" cy="27.77" rx="0.67" ry="0.60" fill="black" opacity="0.75"/><ellipse cx="9" cy="9" rx="1.4" ry="0.7" fill="black"/><ellipse cx="48" cy="7" rx="1" ry="0.8" fill="black"/><ellipse cx="3" cy="30" rx="0.8" ry="2" fill="black"/><ellipse cx="51" cy="49" rx="1.2" ry="0.7" fill="black"/><ellipse cx="19" cy="59" rx="1.3" ry="0.6" fill="black"/><ellipse cx="27" cy="29" rx="1" ry="0.5" fill="black"/><ellipse cx="42" cy="35" rx="0.8" ry="0.6" fill="black"/></svg>